# xmcd
#
# Track frame offsets:
#	150
#	16837
#	32812
#	45150
#	55575
#	71925
#	86737
#	98700
#	110775
#	126225
#	145012
#	158962
#
# Disc length: 2362 seconds
#
# Revision: 1
# Processed by: cddbd v1.5.2PL0 Copyright (c) Steve Scherf et al.
# Submitted via: audiograbber 1.83.01
#
DISCID=9d09380c
DTITLE=Bobby Osbourne and The Rocky Top X-Press - Bluegrass Melodies
DYEAR=2007
DGENRE=Bluegrass
TTITLE0=What Kind Of Fool
TTITLE1=Bluegrass Melodies
TTITLE2=Music Makin' Man
TTITLE3=Color Me Lonely
TTITLE4=I Would Like To See You Again
TTITLE5=Under A Lonesome Moon
TTITLE6=I'll Take A Chance
TTITLE7=Lonesome River
TTITLE8=Thank God I'm A Country Boy
TTITLE9=Lucky Lane Shuffle
TTITLE10=Are You Afraid To Speak Our Saviou's Name?
TTITLE11=Go Rest High On That Mountain
EXTD=
EXTT0=
EXTT1=
EXTT2=
EXTT3=
EXTT4=
EXTT5=
EXTT6=
EXTT7=
EXTT8=
EXTT9=
EXTT10=
EXTT11=
PLAYORDER=
